<svg xmlns="http://www.w3.org/2000/svg" width="33.749" height="29.993" viewBox="0 0 33.749 29.993">
  <path id="Icon_awesome-edit" data-name="Icon awesome-edit" d="M23.589,4.876l5.285,5.285a.573.573,0,0,1,0,.809l-12.8,12.8-5.437.6a1.14,1.14,0,0,1-1.26-1.26l.6-5.437,12.8-12.8A.573.573,0,0,1,23.589,4.876Zm9.492-1.342L30.221.675a2.292,2.292,0,0,0-3.234,0L24.913,2.749a.573.573,0,0,0,0,.809L30.2,8.843a.573.573,0,0,0,.809,0l2.074-2.074a2.292,2.292,0,0,0,0-3.234ZM22.5,20.286V26.25H3.75V7.5H17.214a.72.72,0,0,0,.5-.205l2.344-2.344a.7.7,0,0,0-.5-1.2H2.812A2.813,2.813,0,0,0,0,6.563V27.188A2.813,2.813,0,0,0,2.812,30H23.437a2.813,2.813,0,0,0,2.812-2.812V17.942a.7.7,0,0,0-1.2-.5L22.7,19.788A.72.72,0,0,0,22.5,20.286Z" transform="translate(0 -0.007)" fill="#fff"/>
</svg>
