<svg xmlns="http://www.w3.org/2000/svg" width="30" height="30" viewBox="0 0 30 30">
  <path id="Icon_simple-chef" data-name="Icon simple-chef" d="M15.037,0A15.052,15.052,0,0,0,1.025,9.562l2.388.962a12.5,12.5,0,0,1,11.625-8,12.671,12.671,0,0,1,7.45,2.463l1.5-2.05A14.95,14.95,0,0,0,15.038,0Zm0,2.875a12.2,12.2,0,0,0-11.35,7.787l2.387.875A9.525,9.525,0,0,1,15.038,5.4Zm4.437.875-.95,2.4a9.337,9.337,0,0,1,5.938,7.037h2.6a12.125,12.125,0,0,0-7.587-9.425Zm-4.437,2a9.3,9.3,0,1,0,9.15,11.125h-2.6a6.875,6.875,0,0,1-6.55,4.925,6.763,6.763,0,1,1,6.5-8.613h2.587a9.187,9.187,0,0,0-9.087-7.45ZM27.813,7.112,25.625,8.475A11.875,11.875,0,0,1,27.4,13.187H30a14.45,14.45,0,0,0-2.187-6.075ZM14.962,8.537a6.525,6.525,0,0,0-5.875,9.087l2.463-1.087a3.713,3.713,0,0,1-.338-1.5,3.788,3.788,0,0,1,3.75-3.762Zm2.4.488L16.4,11.55a3.942,3.942,0,0,1,1.913,1.638h2.875A6.3,6.3,0,0,0,17.362,9.025ZM0,15.025a14.739,14.739,0,0,0,1.3,6.088l2.25-1.025a13.113,13.113,0,0,1-1.025-5.05Zm2.875,0a12.1,12.1,0,0,0,7.65,11.287l.95-2.4A9.537,9.537,0,0,1,5.4,15.037Zm15.375,1.85a3.307,3.307,0,0,1-1.85,1.637l.962,2.538a6.3,6.3,0,0,0,3.825-4.175Zm6.213,0a9.662,9.662,0,0,1-9.425,7.8V27.2A12.137,12.137,0,0,0,27.062,16.875Zm2.937,0A12.625,12.625,0,0,1,15.025,27.537a12.491,12.491,0,0,1-8.8-3.687L4.437,25.625A15.071,15.071,0,0,0,30,16.875ZM12.375,17.7l-1.913,1.913a6.513,6.513,0,0,0,4.575,1.913V18.787A3.775,3.775,0,0,1,12.375,17.7Z" transform="translate(0 0)" fill="#fff"/>
</svg>
